<svg width="525" height="94" viewBox="0 0 525 94" fill="none" xmlns="http://www.w3.org/2000/svg">
<g filter="url(#filter0_i_1_3)">
<path d="M20.8 93.99H7.15C4.20333 93.99 2.25333 93.5133 1.3 92.56C0.433333 91.6067 -1.93715e-07 89.6133 -1.93715e-07 86.58V7.41C-1.93715e-07 4.37667 0.433333 2.38334 1.3 1.43C2.25333 0.476667 4.20333 -9.53674e-07 7.15 -9.53674e-07H20.8V93.99ZM74.3255 12.35H62.2355C60.8488 12.35 60.1555 12.6967 60.1555 13.39V93.99H46.5055C43.5588 93.99 41.6088 93.5133 40.6555 92.56C39.7888 91.6067 39.3555 89.6133 39.3555 86.58V7.41C39.3555 4.37667 39.7888 2.38334 40.6555 1.43C41.6088 0.476667 43.5588 -9.53674e-07 46.5055 -9.53674e-07H74.3255V12.35ZM79.5255 -9.53674e-07H93.1755C96.1221 -9.53674e-07 98.0288 0.476667 98.8955 1.43C99.8488 2.38334 100.325 4.37667 100.325 7.41V86.45C100.325 89.4833 99.8488 91.52 98.8955 92.56C97.9421 93.5133 96.0355 93.99 93.1755 93.99H79.5255V50.44H65.3555V38.09H79.5255V-9.53674e-07ZM190.198 -9.53674e-07V86.58C190.198 89.6133 189.721 91.6067 188.768 92.56C187.901 93.5133 185.995 93.99 183.048 93.99H164.588C159.475 93.99 156.095 93.21 154.448 91.65C152.888 90.09 151.501 86.06 150.288 79.56C147.861 66.7333 144.351 46.02 139.758 17.42C139.411 15.2533 138.891 13.8667 138.198 13.26C137.591 12.6533 136.508 12.3067 134.948 12.22H118.958V-9.53674e-07H147.168C149.335 -9.53674e-07 151.068 0.260001 152.368 0.780005C153.668 1.3 154.708 2.42667 155.488 4.16C156.355 5.80667 156.918 7.41 157.178 8.97C157.525 10.53 157.871 12.35 158.218 14.43C158.651 16.9433 159.258 20.6267 160.038 25.48C161.511 35.2733 163.808 49.0967 166.928 66.95C168.141 74.5767 168.965 78.8667 169.398 79.82C169.918 80.6867 170.785 81.2067 171.998 81.38V5.2C171.998 3.64 172.431 2.38334 173.298 1.43C174.165 0.476667 175.291 -9.53674e-07 176.678 -9.53674e-07H190.198ZM118.958 16.77H132.478C133.865 16.77 134.991 17.2467 135.858 18.2C136.725 19.1533 137.158 20.41 137.158 21.97V86.58C137.158 89.5267 136.768 91.52 135.988 92.56C135.208 93.5133 133.648 93.99 131.308 93.99H118.958V16.77ZM257.075 0.129997V37.44C257.075 38.8267 257.378 39.8233 257.985 40.43C258.678 41.0367 260.152 41.34 262.405 41.34H272.025V53.69H255.515C250.575 53.69 246.588 53.17 243.555 52.13C240.608 51.09 238.398 49.27 236.925 46.67C235.538 43.9833 234.628 41.1233 234.195 38.09C233.848 35.0567 233.675 30.9833 233.675 25.87C233.675 20.67 233.848 16.7267 234.195 14.04C234.628 11.3533 235.538 8.84 236.925 6.5C238.398 4.16 240.608 2.51333 243.555 1.56C246.588 0.606666 250.575 0.129997 255.515 0.129997H257.075ZM277.225 41.34H278.785C282.512 41.34 285.372 41.4267 287.365 41.6C289.445 41.6867 291.438 42.0767 293.345 42.77C295.252 43.3767 296.552 44.1133 297.245 44.98C298.025 45.8467 298.718 47.3633 299.325 49.53C300.018 51.61 300.408 53.8633 300.495 56.29C300.582 58.7167 300.625 62.1833 300.625 66.69C300.625 71.1967 300.582 74.7933 300.495 77.48C300.408 80.08 300.018 82.5933 299.325 85.02C298.718 87.36 298.025 89.0067 297.245 89.96C296.552 90.9133 295.252 91.78 293.345 92.56C291.438 93.2533 289.445 93.6867 287.365 93.86C285.372 93.9467 282.512 93.99 278.785 93.99H277.225V41.34ZM235.495 65H251.875C253.088 65 253.825 65.1733 254.085 65.52C254.345 65.8667 254.475 66.6033 254.475 67.73V77.87C254.475 79.2567 254.648 80.2533 254.995 80.86C255.428 81.38 256.425 81.64 257.985 81.64H272.025V93.99H252.915C246.588 93.99 241.778 92.9067 238.485 90.74C235.278 88.5733 233.675 84.8033 233.675 79.43V67.73C233.675 65.91 234.282 65 235.495 65ZM262.275 -9.53674e-07H278.785C285.112 -9.53674e-07 289.878 1.08333 293.085 3.25C296.378 5.41667 298.025 9.18667 298.025 14.56V26.26C298.025 28.08 297.418 28.99 296.205 28.99H279.825C278.612 28.99 277.875 28.8167 277.615 28.47C277.355 28.1233 277.225 27.3867 277.225 26.26V16.12C277.225 14.7333 277.008 13.78 276.575 13.26C276.228 12.6533 275.275 12.35 273.715 12.35H262.275V-9.53674e-07ZM348.078 92.95C348.078 93.47 347.818 93.8167 347.298 93.99H337.418C331.091 93.99 326.498 92.7333 323.638 90.22C320.778 87.7067 319.348 83.2867 319.348 76.96V39H312.718C310.551 39 309.468 37.7 309.468 35.1V28.99H319.348V-9.53674e-07H327.278C331.091 -9.53674e-07 333.951 0.953333 335.858 2.86C337.851 4.76667 338.848 7.19334 338.848 10.14V79.3C338.848 82.5067 340.668 84.11 344.308 84.11H347.038C347.731 84.11 348.078 84.4133 348.078 85.02V92.95ZM352.108 28.99V35.1C352.108 37.7 351.025 39 348.858 39H342.098V28.99H352.108ZM383.774 28.99H396.384C399.678 28.99 402.364 29.1633 404.444 29.51C406.524 29.77 408.344 30.42 409.904 31.46C411.464 32.5 412.634 33.67 413.414 34.97C414.194 36.1833 414.801 38.1767 415.234 40.95C415.928 44.85 416.274 50.31 416.274 57.33C416.274 64.35 416.231 69.1167 416.144 71.63C416.058 74.0567 415.884 76.6567 415.624 79.43C415.451 82.2033 415.061 84.24 414.454 85.54C413.934 86.84 413.198 88.1833 412.244 89.57C411.378 90.87 410.208 91.78 408.734 92.3C405.528 93.4267 401.411 93.99 396.384 93.99H396.124V44.98C396.124 44.8067 396.124 44.2867 396.124 43.42C396.124 42.5533 396.081 41.8167 395.994 41.21C395.561 39.5633 393.828 38.74 390.794 38.74H383.774V28.99ZM379.874 28.99V78C379.874 78.1733 379.874 78.6933 379.874 79.56C379.874 80.4267 379.961 81.1633 380.134 81.77C380.481 83.4167 382.171 84.24 385.204 84.24H392.224V93.99H379.614C376.321 93.99 373.634 93.86 371.554 93.6C369.474 93.2533 367.654 92.56 366.094 91.52C364.534 90.48 363.364 89.3533 362.584 88.14C361.804 86.84 361.154 84.8033 360.634 82.03C360.028 78.13 359.724 72.67 359.724 65.65C359.724 58.63 359.768 53.9067 359.854 51.48C359.941 48.9667 360.071 46.3233 360.244 43.55C360.504 40.7767 360.894 38.74 361.414 37.44C362.021 36.14 362.758 34.84 363.624 33.54C364.578 32.1533 365.791 31.2 367.264 30.68C370.471 29.5533 374.588 28.99 379.614 28.99H379.874ZM444.368 28.99H459.968C460.488 28.99 460.748 29.2933 460.748 29.9V37.83C460.748 38.4367 460.402 38.74 459.708 38.74H453.858C451.778 38.74 450.565 39.13 450.218 39.91C449.872 41.0367 449.698 42.2933 449.698 43.68V83.98C449.698 86.9267 448.702 89.3533 446.708 91.26C444.802 93.08 441.942 93.99 438.128 93.99H430.198V43.42C430.198 38.3067 431.325 34.6233 433.578 32.37C435.918 30.1167 439.515 28.99 444.368 28.99ZM489.943 93.99H489.683C481.103 93.99 475.816 92.5167 473.823 89.57C472.869 88.1833 472.089 86.84 471.483 85.54C470.963 84.24 470.616 82.2033 470.443 79.43C470.009 74.4033 469.793 68.8133 469.793 62.66C469.793 56.5067 469.836 52.0867 469.923 49.4C470.009 46.6267 470.269 43.8533 470.703 41.08C471.223 38.22 471.873 36.1833 472.653 34.97C473.433 33.67 474.603 32.5 476.163 31.46C477.723 30.42 479.543 29.77 481.623 29.51C483.703 29.1633 486.389 28.99 489.683 28.99H489.943V93.99ZM524.523 73.45V80.08C524.523 89.3533 519.799 93.99 510.353 93.99H493.973V84.24H500.993C502.813 84.24 503.939 83.98 504.373 83.46C504.806 82.8533 505.023 81.8133 505.023 80.34V76.18C505.023 74.88 505.153 74.1433 505.413 73.97C505.759 73.7967 505.976 73.71 506.063 73.71C506.149 73.6233 506.366 73.58 506.713 73.58C507.146 73.4933 507.449 73.45 507.623 73.45C513.256 73.45 518.889 73.45 524.523 73.45ZM493.973 28.99H509.053C515.033 28.99 519.106 30.16 521.273 32.5C523.439 34.84 524.523 38.3067 524.523 42.9V54.34C524.523 62.14 520.276 66.04 511.783 66.04H492.673V56.29H499.693C501.773 56.29 503.159 56.03 503.853 55.51C504.633 54.99 505.023 53.9933 505.023 52.52V42.64C505.023 41.1667 504.806 40.17 504.373 39.65C503.939 39.0433 502.813 38.74 500.993 38.74H493.973V28.99Z" fill="white"/>
</g>
<defs>
<filter id="filter0_i_1_3" x="0" y="0" width="524.523" height="97.99" filterUnits="userSpaceOnUse" color-interpolation-filters="sRGB">
<feFlood flood-opacity="0" result="BackgroundImageFix"/>
<feBlend mode="normal" in="SourceGraphic" in2="BackgroundImageFix" result="shape"/>
<feColorMatrix in="SourceAlpha" type="matrix" values="0 0 0 0 0 0 0 0 0 0 0 0 0 0 0 0 0 0 127 0" result="hardAlpha"/>
<feOffset dy="4"/>
<feGaussianBlur stdDeviation="2"/>
<feComposite in2="hardAlpha" operator="arithmetic" k2="-1" k3="1"/>
<feColorMatrix type="matrix" values="0 0 0 0 0 0 0 0 0 0 0 0 0 0 0 0 0 0 0.25 0"/>
<feBlend mode="normal" in2="shape" result="effect1_innerShadow_1_3"/>
</filter>
</defs>
</svg>
